<svg width="350" height="390" viewBox="0 0 350 390" fill="none" xmlns="http://www.w3.org/2000/svg">
<path d="M195.437 185H154.777C147.168 185 141 191.168 141 198.777V299.354C141 306.963 147.168 313.131 154.777 313.131H195.437C203.046 313.131 209.214 306.963 209.214 299.354V198.777C209.214 191.168 203.046 185 195.437 185Z" fill="#FFF0F0" stroke="#323232" stroke-width="4" stroke-linecap="round"/>
<path d="M142.896 267.634V226.678H211.5C206.333 247.68 175.524 268.768 142.896 267.634Z" fill="#7E7E7E" fill-opacity="0.45"/>
<path d="M110 156.678C123.45 156.678 134 166.489 134 178.178C134 189.866 123.45 199.678 110 199.678C96.5501 199.678 86 189.866 86 178.178C86 166.489 96.5501 156.678 110 156.678Z" fill="#FFF0F0" stroke="#323232" stroke-width="4"/>
<path d="M241 156.678C227.55 156.678 217 166.489 217 178.178C217 189.866 227.55 199.678 241 199.678C254.45 199.678 265 189.866 265 178.178C265 166.489 254.45 156.678 241 156.678Z" fill="#FFF0F0" stroke="#323232" stroke-width="4"/>
<path d="M176.03 106.5C197.621 106.5 214.032 111.726 225.047 122.235C236.045 132.729 242 148.812 242 171.262C242 193.713 236.042 210.834 224.985 222.337C213.941 233.828 197.532 240 176.03 240C154.527 240 137.842 233.826 126.528 222.32C115.211 210.81 109 193.69 109 171.262C109 148.836 115.207 132.753 126.467 122.251C137.752 111.726 154.439 106.5 176.03 106.5Z" fill="#FFF0F0" stroke="#323232" stroke-width="4" stroke-linecap="round"/>
<path d="M176 187C174.029 193.812 173 197.371 173 204.458C175.64 205.72 178.163 206.036 182.5 206" stroke="#323232" stroke-width="4" stroke-linecap="round" stroke-linejoin="round"/>
<path d="M140.768 181.178C142.829 181.178 144.657 182.293 145.953 184.021C147.249 185.748 148.035 188.112 148.035 190.701C148.035 193.291 147.249 195.654 145.953 197.382C144.657 199.109 142.829 200.225 140.768 200.225C138.706 200.225 136.878 199.109 135.582 197.382C134.286 195.654 133.5 193.291 133.5 190.701C133.5 188.112 134.286 185.748 135.582 184.021C136.878 182.293 138.706 181.178 140.768 181.178Z" fill="#323232" stroke="#323232" stroke-linecap="round"/>
<path d="M143.616 190.986C144.997 190.986 146.116 189.867 146.116 188.486C146.116 187.106 144.997 185.986 143.616 185.986C142.235 185.986 141.116 187.106 141.116 188.486C141.116 189.867 142.235 190.986 143.616 190.986Z" fill="#FFF0F0" stroke="#323232"/>
<path d="M212.768 181.178C214.829 181.178 216.657 182.293 217.953 184.021C219.249 185.748 220.035 188.112 220.035 190.701C220.035 193.291 219.249 195.654 217.953 197.382C216.657 199.109 214.829 200.225 212.768 200.225C210.706 200.225 208.878 199.109 207.582 197.382C206.286 195.654 205.5 193.291 205.5 190.701C205.5 188.112 206.286 185.748 207.582 184.021C208.878 182.293 210.706 181.178 212.768 181.178Z" fill="#323232" stroke="#323232" stroke-linecap="round"/>
<path d="M215.616 190.486C216.721 190.486 217.616 189.591 217.616 188.486C217.616 187.382 216.721 186.486 215.616 186.486C214.512 186.486 213.616 187.382 213.616 188.486C213.616 189.591 214.512 190.486 215.616 190.486Z" fill="#FFF0F0"/>
<path d="M169 217.678C172 221.344 179.8 226.478 187 217.678" stroke="#323232" stroke-width="4" stroke-linecap="round" stroke-linejoin="round"/>
<g filter="url(#filter0_f_476_1861)">
<path d="M136.5 217C141.747 217 146 214.538 146 211.5C146 208.462 141.747 206 136.5 206C131.253 206 127 208.462 127 211.5C127 214.538 131.253 217 136.5 217Z" fill="#FF784F" fill-opacity="0.32"/>
</g>
<g filter="url(#filter1_f_476_1861)">
<path d="M215.5 217C220.747 217 225 214.538 225 211.5C225 208.462 220.747 206 215.5 206C210.253 206 206 208.462 206 211.5C206 214.538 210.253 217 215.5 217Z" fill="#FF784F" fill-opacity="0.32"/>
</g>
<path d="M96.4996 133C93.1407 163.005 109 183.5 112 186C112 186 115.229 159.457 127.787 138.5C166.245 152.347 182.077 152.798 220.5 138.5C227 149.5 235.5 165.5 239.256 186C245.5 183.5 255.397 137.445 252 116C248.602 94.5545 232.141 96.1151 232.141 96.1151C232.141 96.1151 244 85.4708 239.256 74.8266C234.513 64.1823 211.982 74.8266 211.982 74.8266C211.982 74.8266 222.654 59.4515 204.866 54.7208C187.079 49.99 165.734 70.0958 165.734 70.0958C165.734 70.0958 174.035 54.7208 158.619 54.7208C143.203 54.7208 127.787 85.4708 127.787 85.4708C127.787 85.4708 124.115 73.4038 117 80.5C109.884 87.5962 113.557 112.673 113.557 112.673C113.557 112.673 99.8585 102.995 96.4996 133Z" fill="#351E1C"/>
<path d="M140.181 257.032C140.638 256.821 141.303 256.989 141.637 257.566C157.781 285.54 196.874 283.35 209.064 257.821C209.396 257.127 210.144 256.922 210.623 257.139C237.581 269.357 255.284 282.353 267.373 299.32C279.476 316.307 286.102 337.482 290.512 366.355C290.604 366.958 290.132 367.5 289.537 367.5H59.4711C58.8783 367.5 58.4057 366.956 58.5004 366.354C63.2638 336.036 71.098 314.611 83.9311 297.852C96.765 281.091 114.747 268.803 140.181 257.032Z" fill="#666666" stroke="#323232" stroke-width="4" stroke-linecap="round" stroke-linejoin="round"/>
<path d="M223.5 264.178C208 300.678 143.5 301.178 128 261.678" stroke="#323232" stroke-width="4"/>
<defs>
<filter id="filter0_f_476_1861" x="115" y="194" width="43" height="35" filterUnits="userSpaceOnUse" color-interpolation-filters="sRGB">
<feFlood flood-opacity="0" result="BackgroundImageFix"/>
<feBlend mode="normal" in="SourceGraphic" in2="BackgroundImageFix" result="shape"/>
<feGaussianBlur stdDeviation="6" result="effect1_foregroundBlur_476_1861"/>
</filter>
<filter id="filter1_f_476_1861" x="194" y="194" width="43" height="35" filterUnits="userSpaceOnUse" color-interpolation-filters="sRGB">
<feFlood flood-opacity="0" result="BackgroundImageFix"/>
<feBlend mode="normal" in="SourceGraphic" in2="BackgroundImageFix" result="shape"/>
<feGaussianBlur stdDeviation="6" result="effect1_foregroundBlur_476_1861"/>
</filter>
</defs>
</svg>
