<svg width="350" height="390" viewBox="0 0 350 390" fill="none" xmlns="http://www.w3.org/2000/svg">
<path d="M298.812 266C305.439 266 310.832 260.626 310.617 254.002C309.796 228.686 306.38 203.755 300.497 180.279C293.688 153.102 283.707 128.408 271.125 107.608C258.542 86.8078 243.605 70.308 227.165 59.051C210.726 47.7939 193.106 42 175.312 42C157.518 42 139.898 47.7939 123.458 59.051C107.018 70.308 92.0811 86.8078 79.4987 107.608C66.9164 128.408 56.9355 153.102 50.126 180.279C44.2439 203.755 40.8276 228.686 40.0062 254.002C39.7913 260.626 45.1843 266 51.8117 266H298.812Z" fill="#734535"/>
<path d="M195.437 185H154.777C147.168 185 141 191.168 141 198.777V299.354C141 306.963 147.168 313.131 154.777 313.131H195.437C203.046 313.131 209.214 306.963 209.214 299.354V198.777C209.214 191.168 203.046 185 195.437 185Z" fill="#FFF0F0" stroke="#323232" stroke-width="4" stroke-linecap="round"/>
<path d="M142.896 267.634V226.678H211.5C206.333 247.68 175.524 268.768 142.896 267.634Z" fill="#7E7E7E" fill-opacity="0.45"/>
<path d="M108 161C121.45 161 132 170.811 132 182.5C132 194.189 121.45 204 108 204C94.5501 204 84 194.189 84 182.5C84 170.811 94.5501 161 108 161Z" fill="#FFF0F0" stroke="#323232" stroke-width="4"/>
<path d="M243 161C229.55 161 219 170.811 219 182.5C219 194.189 229.55 204 243 204C256.45 204 267 194.189 267 182.5C267 170.811 256.45 161 243 161Z" fill="#FFF0F0" stroke="#323232" stroke-width="4"/>
<path d="M176.03 79C197.043 79.0001 213.473 90.8931 224.74 108.611C236.026 126.358 242 149.787 242 172.262C242 194.713 236.042 211.834 224.985 223.337C213.941 234.828 197.532 241 176.03 241C154.527 241 137.842 234.826 126.528 223.32C115.211 211.81 109 194.69 109 172.262C109 149.804 115.232 126.379 126.779 108.629C138.311 90.9027 155.009 79 176.03 79Z" fill="#FFF0F0" stroke="#323232" stroke-width="4" stroke-linecap="round"/>
<path d="M176 171C174.029 177.812 173 181.371 173 188.458C175.64 189.72 178.163 190.036 182.5 190" stroke="#323232" stroke-width="4" stroke-linecap="round" stroke-linejoin="round"/>
<path d="M140.768 163.178C142.829 163.178 144.657 164.293 145.953 166.021C147.249 167.748 148.035 170.112 148.035 172.701C148.035 175.291 147.249 177.654 145.953 179.382C144.657 181.109 142.829 182.225 140.768 182.225C138.706 182.225 136.878 181.109 135.582 179.382C134.286 177.654 133.5 175.291 133.5 172.701C133.5 170.112 134.286 167.748 135.582 166.021C136.878 164.293 138.706 163.178 140.768 163.178Z" fill="#323232" stroke="#323232" stroke-linecap="round"/>
<path d="M143.616 172.986C144.997 172.986 146.116 171.867 146.116 170.486C146.116 169.106 144.997 167.986 143.616 167.986C142.235 167.986 141.116 169.106 141.116 170.486C141.116 171.867 142.235 172.986 143.616 172.986Z" fill="#FFF0F0" stroke="#323232"/>
<path d="M212.768 163.178C214.829 163.178 216.657 164.293 217.953 166.021C219.249 167.748 220.035 170.112 220.035 172.701C220.035 175.291 219.249 177.654 217.953 179.382C216.657 181.109 214.829 182.225 212.768 182.225C210.706 182.225 208.878 181.109 207.582 179.382C206.286 177.654 205.5 175.291 205.5 172.701C205.5 170.112 206.286 167.748 207.582 166.021C208.878 164.293 210.706 163.178 212.768 163.178Z" fill="#323232" stroke="#323232" stroke-linecap="round"/>
<path d="M215.616 172.486C216.721 172.486 217.616 171.591 217.616 170.486C217.616 169.382 216.721 168.486 215.616 168.486C214.512 168.486 213.616 169.382 213.616 170.486C213.616 171.591 214.512 172.486 215.616 172.486Z" fill="#FFF0F0"/>
<path d="M168 205.5C171 209.167 178.8 214.3 186 205.5" stroke="#323232" stroke-width="4" stroke-linecap="round" stroke-linejoin="round"/>
<g filter="url(#filter0_f_476_1910)">
<path d="M136.5 206C141.747 206 146 203.538 146 200.5C146 197.462 141.747 195 136.5 195C131.253 195 127 197.462 127 200.5C127 203.538 131.253 206 136.5 206Z" fill="#FF784F"/>
</g>
<g filter="url(#filter1_f_476_1910)">
<path d="M215.5 206C220.747 206 225 203.538 225 200.5C225 197.462 220.747 195 215.5 195C210.253 195 206 197.462 206 200.5C206 203.538 210.253 206 215.5 206Z" fill="#FF784F"/>
</g>
<path d="M192 106C170.149 148.401 152.136 157.762 105 162C95.5001 97.5 110.661 83.8036 181.5 73C239.144 92.2209 240.619 110.613 242 162C207.433 152.149 204.344 137.803 192 106Z" fill="#734535"/>
<path d="M140.181 260.032C140.638 259.821 141.303 259.989 141.637 260.566C157.781 288.54 196.874 286.35 209.064 260.821C209.396 260.127 210.144 259.922 210.623 260.139C237.581 272.357 255.284 285.353 267.373 302.32C279.476 319.307 286.102 340.482 290.512 369.355C290.604 369.958 290.132 370.5 289.537 370.5H59.4711C58.8783 370.5 58.4057 369.956 58.5004 369.354C63.2638 339.036 71.098 317.611 83.9311 300.852C96.765 284.091 114.747 271.803 140.181 260.032Z" fill="#ECECDC" stroke="#323232" stroke-width="4" stroke-linecap="round" stroke-linejoin="round"/>
<path d="M223.5 267.178C208 303.678 143.5 304.178 128 264.678" stroke="#323232" stroke-width="4"/>
<defs>
<filter id="filter0_f_476_1910" x="115" y="183" width="43" height="35" filterUnits="userSpaceOnUse" color-interpolation-filters="sRGB">
<feFlood flood-opacity="0" result="BackgroundImageFix"/>
<feBlend mode="normal" in="SourceGraphic" in2="BackgroundImageFix" result="shape"/>
<feGaussianBlur stdDeviation="6" result="effect1_foregroundBlur_476_1910"/>
</filter>
<filter id="filter1_f_476_1910" x="194" y="183" width="43" height="35" filterUnits="userSpaceOnUse" color-interpolation-filters="sRGB">
<feFlood flood-opacity="0" result="BackgroundImageFix"/>
<feBlend mode="normal" in="SourceGraphic" in2="BackgroundImageFix" result="shape"/>
<feGaussianBlur stdDeviation="6" result="effect1_foregroundBlur_476_1910"/>
</filter>
</defs>
</svg>
