<svg width="350" height="390" viewBox="0 0 350 390" fill="none" xmlns="http://www.w3.org/2000/svg">
<rect x="141" y="185" width="68.2139" height="128.131" rx="13.7769" fill="#FDD9BD" stroke="#323232" stroke-width="4" stroke-linecap="round"/>
<path d="M142.896 267.634V226.678H211.5C206.333 247.68 175.524 268.768 142.896 267.634Z" fill="#7E7E7E" fill-opacity="0.45"/>
<path d="M109 156.678C122.45 156.678 133 166.489 133 178.178C133 189.866 122.45 199.678 109 199.678C95.5501 199.678 85 189.866 85 178.178C85 166.489 95.5501 156.678 109 156.678Z" fill="#FDD9BD" stroke="#323232" stroke-width="4"/>
<path d="M240 156.678C226.55 156.678 216 166.489 216 178.178C216 189.866 226.55 199.678 240 199.678C253.45 199.678 264 189.866 264 178.178C264 166.489 253.45 156.678 240 156.678Z" fill="#FDD9BD" stroke="#323232" stroke-width="4"/>
<path d="M175.03 78C196.043 78.0001 212.473 89.8931 223.74 107.611C235.026 125.358 241 148.787 241 171.262C241 193.713 235.042 210.834 223.985 222.337C212.941 233.828 196.532 240 175.03 240C153.527 240 136.842 233.826 125.528 222.32C114.211 210.81 108 193.69 108 171.262C108 148.804 114.232 125.379 125.779 107.629C137.311 89.9027 154.009 78 175.03 78Z" fill="#FDD9BD" stroke="#323232" stroke-width="4" stroke-linecap="round"/>
<path d="M175 172C173.029 178.812 172 182.371 172 189.458C174.64 190.72 177.163 191.036 181.5 191" stroke="#323232" stroke-width="4" stroke-linecap="round" stroke-linejoin="round"/>
<path d="M139.768 163.178C141.829 163.178 143.657 164.293 144.953 166.021C146.249 167.748 147.035 170.112 147.035 172.701C147.035 175.291 146.249 177.654 144.953 179.382C143.657 181.109 141.829 182.225 139.768 182.225C137.706 182.225 135.878 181.109 134.582 179.382C133.286 177.654 132.5 175.291 132.5 172.701C132.5 170.112 133.286 167.748 134.582 166.021C135.878 164.293 137.706 163.178 139.768 163.178Z" fill="#323232" stroke="#323232" stroke-linecap="round"/>
<circle cx="142.616" cy="170.486" r="2.5" fill="#FDD9BD" stroke="#323232"/>
<path d="M211.768 163.178C213.829 163.178 215.657 164.293 216.953 166.021C218.249 167.748 219.035 170.112 219.035 172.701C219.035 175.291 218.249 177.654 216.953 179.382C215.657 181.109 213.829 182.225 211.768 182.225C209.706 182.225 207.878 181.109 206.582 179.382C205.286 177.654 204.5 175.291 204.5 172.701C204.5 170.112 205.286 167.748 206.582 166.021C207.878 164.293 209.706 163.178 211.768 163.178Z" fill="#323232" stroke="#323232" stroke-linecap="round"/>
<circle cx="214.616" cy="170.486" r="2" fill="#FDD9BD"/>
<path d="M166 206C169 209.667 176.8 214.8 184 206" stroke="#323232" stroke-width="4" stroke-linecap="round" stroke-linejoin="round"/>
<path d="M145 218.494C145 207.728 153.728 199 164.494 199H185.506C196.272 199 205 207.728 205 218.494C205 220.036 204.15 221.453 202.789 222.179L201.029 223.118C198.824 224.294 196.176 224.294 193.971 223.118L193.75 223C191.406 221.75 188.594 221.75 186.25 223C183.906 224.25 181.094 224.25 178.75 223C176.406 221.75 173.594 221.75 171.25 223C168.906 224.25 166.094 224.25 163.75 223C161.406 221.75 158.594 221.75 156.25 223L156.029 223.118C153.824 224.294 151.176 224.294 148.971 223.118L147.211 222.179C145.85 221.453 145 220.036 145 218.494Z" fill="#323232"/>
<path d="M107 161V118C107 91.4903 128.49 70 155 70H193.528C219.83 70 241.234 91.1683 241.525 117.469L242 160.445C238.396 147.923 234.715 139.88 227.059 132.599C219.893 125.783 208.862 127.057 200.413 132.198C181.229 143.871 166.562 144.611 147.613 133.41C138.288 127.897 125.91 126.843 119.313 135.435C113.977 142.385 110.899 150.132 107 161Z" fill="#323232"/>
<g filter="url(#filter0_f_520_722)">
<ellipse cx="134.5" cy="205.5" rx="9.5" ry="5.5" fill="#FF784F" fill-opacity="0.47"/>
</g>
<g filter="url(#filter1_f_520_722)">
<ellipse cx="213.5" cy="205.5" rx="9.5" ry="5.5" fill="#FF784F" fill-opacity="0.47"/>
</g>
<path d="M140.181 260.032C140.638 259.821 141.303 259.989 141.637 260.566C157.781 288.54 196.874 286.35 209.064 260.821C209.396 260.127 210.144 259.922 210.623 260.139C237.581 272.357 255.284 285.353 267.373 302.32C279.476 319.307 286.102 340.482 290.512 369.355C290.604 369.958 290.132 370.5 289.537 370.5H59.4707C58.8779 370.5 58.4053 369.956 58.5 369.354C63.2634 339.036 71.0976 317.611 83.9307 300.852C96.7646 284.091 114.747 271.803 140.181 260.032Z" fill="#1A75FF" stroke="#323232" stroke-width="4" stroke-linecap="round" stroke-linejoin="round"/>
<defs>
<filter id="filter0_f_520_722" x="113" y="188" width="43" height="35" filterUnits="userSpaceOnUse" color-interpolation-filters="sRGB">
<feFlood flood-opacity="0" result="BackgroundImageFix"/>
<feBlend mode="normal" in="SourceGraphic" in2="BackgroundImageFix" result="shape"/>
<feGaussianBlur stdDeviation="6" result="effect1_foregroundBlur_520_722"/>
</filter>
<filter id="filter1_f_520_722" x="192" y="188" width="43" height="35" filterUnits="userSpaceOnUse" color-interpolation-filters="sRGB">
<feFlood flood-opacity="0" result="BackgroundImageFix"/>
<feBlend mode="normal" in="SourceGraphic" in2="BackgroundImageFix" result="shape"/>
<feGaussianBlur stdDeviation="6" result="effect1_foregroundBlur_520_722"/>
</filter>
</defs>
</svg>
