<svg width="350" height="390" viewBox="0 0 350 390" fill="none" xmlns="http://www.w3.org/2000/svg">
<path d="M87 146C87 97.3989 126.399 58 175 58C223.601 58 263 97.3989 263 146V243C263 258.464 250.464 271 235 271H115C99.536 271 87 258.464 87 243V146Z" fill="#914611"/>
<path d="M108 160C121.45 160 132 169.811 132 181.5C132 193.189 121.45 203 108 203C94.5501 203 84 193.189 84 181.5C84 169.811 94.5501 160 108 160Z" fill="#FFF0F0" stroke="#323232" stroke-width="4"/>
<path d="M243 160C229.55 160 219 169.811 219 181.5C219 193.189 229.55 203 243 203C256.45 203 267 193.189 267 181.5C267 169.811 256.45 160 243 160Z" fill="#FFF0F0" stroke="#323232" stroke-width="4"/>
<path d="M195.437 185H154.777C147.168 185 141 191.168 141 198.777V299.354C141 306.963 147.168 313.131 154.777 313.131H195.437C203.046 313.131 209.214 306.963 209.214 299.354V198.777C209.214 191.168 203.046 185 195.437 185Z" fill="#FFF0F0" stroke="#323232" stroke-width="4" stroke-linecap="round"/>
<path d="M142.896 267.634V226.678H211.5C206.333 247.68 175.524 268.768 142.896 267.634Z" fill="#7E7E7E" fill-opacity="0.45"/>
<path d="M107 160C120.45 160 131 169.811 131 181.5C131 193.189 120.45 203 107 203C93.5501 203 83 193.189 83 181.5C83 169.811 93.5501 160 107 160Z" fill="#FFF0F0" stroke="#323232" stroke-width="4"/>
<path d="M242 160C228.55 160 218 169.811 218 181.5C218 193.189 228.55 203 242 203C255.45 203 266 193.189 266 181.5C266 169.811 255.45 160 242 160Z" fill="#FFF0F0" stroke="#323232" stroke-width="4"/>
<path d="M175.03 78C196.043 78.0001 212.473 89.8931 223.74 107.611C235.026 125.358 241 148.787 241 171.262C241 193.713 235.042 210.834 223.985 222.337C212.941 233.828 196.532 240 175.03 240C153.527 240 136.842 233.826 125.528 222.32C114.211 210.81 108 193.69 108 171.262C108 148.804 114.232 125.379 125.779 107.629C137.311 89.9027 154.009 78 175.03 78Z" fill="#FFF0F0" stroke="#323232" stroke-width="4" stroke-linecap="round"/>
<path d="M175 170C173.029 176.812 172 180.371 172 187.458C174.64 188.72 177.163 189.036 181.5 189" stroke="#323232" stroke-width="4" stroke-linecap="round" stroke-linejoin="round"/>
<path d="M139.768 162.178C141.829 162.178 143.657 163.293 144.953 165.021C146.249 166.748 147.035 169.112 147.035 171.702C147.035 174.291 146.249 176.655 144.953 178.382C143.657 180.11 141.829 181.225 139.768 181.225C137.706 181.225 135.878 180.11 134.582 178.382C133.286 176.655 132.5 174.291 132.5 171.702C132.5 169.112 133.286 166.748 134.582 165.021C135.878 163.293 137.706 162.178 139.768 162.178Z" fill="#323232" stroke="#323232" stroke-linecap="round"/>
<path d="M142.616 171.987C143.997 171.987 145.116 170.868 145.116 169.487C145.116 168.107 143.997 166.987 142.616 166.987C141.235 166.987 140.116 168.107 140.116 169.487C140.116 170.868 141.235 171.987 142.616 171.987Z" fill="#FFF0F0" stroke="#323232"/>
<path d="M211.768 162.178C213.829 162.178 215.657 163.293 216.953 165.021C218.249 166.748 219.035 169.112 219.035 171.702C219.035 174.291 218.249 176.655 216.953 178.382C215.657 180.11 213.829 181.225 211.768 181.225C209.706 181.225 207.878 180.11 206.582 178.382C205.286 176.655 204.5 174.291 204.5 171.702C204.5 169.112 205.286 166.748 206.582 165.021C207.878 163.293 209.706 162.178 211.768 162.178Z" fill="#323232" stroke="#323232" stroke-linecap="round"/>
<path d="M214.616 171.487C215.721 171.487 216.616 170.592 216.616 169.487C216.616 168.383 215.721 167.487 214.616 167.487C213.512 167.487 212.616 168.383 212.616 169.487C212.616 170.592 213.512 171.487 214.616 171.487Z" fill="#FFF0F0"/>
<path d="M167 204.5C170 208.167 177.8 213.3 185 204.5" stroke="#323232" stroke-width="4" stroke-linecap="round" stroke-linejoin="round"/>
<g filter="url(#filter0_f_520_745)">
<path d="M135.5 205C140.747 205 145 202.538 145 199.5C145 196.462 140.747 194 135.5 194C130.253 194 126 196.462 126 199.5C126 202.538 130.253 205 135.5 205Z" fill="#FF784F"/>
</g>
<g filter="url(#filter1_f_520_745)">
<path d="M214.5 205C219.747 205 224 202.538 224 199.5C224 196.462 219.747 194 214.5 194C209.253 194 205 196.462 205 199.5C205 202.538 209.253 205 214.5 205Z" fill="#FF784F"/>
</g>
<path d="M211.858 114.577C182.186 155.508 154.95 158.664 105 163C114.27 100.371 109.769 78.0698 186.067 75C247 78.5814 245.536 110.418 247 163C228.813 153.461 224.939 147.12 211.858 114.577Z" fill="#914611"/>
<path d="M140.181 260.032C140.638 259.821 141.303 259.989 141.637 260.566C157.781 288.54 196.874 286.35 209.064 260.821C209.396 260.127 210.144 259.922 210.623 260.139C237.581 272.357 255.284 285.353 267.373 302.32C279.476 319.307 286.102 340.482 290.512 369.355C290.604 369.958 290.132 370.5 289.537 370.5H59.4711C58.8783 370.5 58.4057 369.956 58.5004 369.354C63.2638 339.036 71.098 317.611 83.9311 300.852C96.765 284.091 114.747 271.803 140.181 260.032Z" fill="#ECBC3F" stroke="#323232" stroke-width="4" stroke-linecap="round" stroke-linejoin="round"/>
<path d="M132 318H221V267.313C229.292 271.502 233.661 274.365 241 279.304V318L241.412 318.01C245.639 318.224 249 321.72 249 326V368.5H101V326C101 321.582 104.582 318 109 318H112V277.742C119.48 272.735 123.887 270.372 132 266.168V318Z" fill="#14237D"/>
<path d="M241 368.5V333C241 328.582 237.418 325 233 325H117C112.582 325 109 328.582 109 333V368.5" stroke="#FFF0F0" stroke-width="0.5" stroke-linecap="round" stroke-dasharray="4 4"/>
<path d="M118.5 317.5V277.5" stroke="#FFF0F0" stroke-linecap="round" stroke-dasharray="4 4"/>
<path d="M234.5 317.5V277.5" stroke="#FFF0F0" stroke-linecap="round" stroke-dasharray="4 4"/>
<path d="M119 330C122.314 330 125 327.314 125 324C125 320.686 122.314 318 119 318C115.686 318 113 320.686 113 324C113 327.314 115.686 330 119 330Z" fill="#FFF0F0"/>
<path d="M233 330C236.314 330 239 327.314 239 324C239 320.686 236.314 318 233 318C229.686 318 227 320.686 227 324C227 327.314 229.686 330 233 330Z" fill="#FFF0F0"/>
<path d="M137 350C137 343.925 141.925 339 148 339H201C207.075 339 212 343.925 212 350V369H137V350Z" fill="white" fill-opacity="0.5"/>
<defs>
<filter id="filter0_f_520_745" x="114" y="182" width="43" height="35" filterUnits="userSpaceOnUse" color-interpolation-filters="sRGB">
<feFlood flood-opacity="0" result="BackgroundImageFix"/>
<feBlend mode="normal" in="SourceGraphic" in2="BackgroundImageFix" result="shape"/>
<feGaussianBlur stdDeviation="6" result="effect1_foregroundBlur_520_745"/>
</filter>
<filter id="filter1_f_520_745" x="193" y="182" width="43" height="35" filterUnits="userSpaceOnUse" color-interpolation-filters="sRGB">
<feFlood flood-opacity="0" result="BackgroundImageFix"/>
<feBlend mode="normal" in="SourceGraphic" in2="BackgroundImageFix" result="shape"/>
<feGaussianBlur stdDeviation="6" result="effect1_foregroundBlur_520_745"/>
</filter>
</defs>
</svg>
