<svg width="142" height="143" viewBox="0 0 142 143" fill="none" xmlns="http://www.w3.org/2000/svg">
<path d="M61.4783 61.9398C56.2384 61.9398 65.173 -2.72748 42.8321 4.57441C21.591 11.5168 51.292 61.9398 46.3011 61.9398C41.3102 61.9398 6.42766 59.0363 4.10536 74.847C1.51178 92.5046 47.208 82.6209 48.5694 84.8859C49.9308 87.1509 30.6275 113.969 42.8321 122.173C55.4759 130.673 71.6208 99.2272 74.3872 99.2272C77.1537 99.2272 91.452 150.742 103.074 136.515C112.519 124.952 90.0038 99.2272 94.4678 99.2272C98.9317 99.2272 132.235 101.841 137.497 84.8859C143.929 64.1652 86.4548 78.9615 82.9932 74.847C79.5315 70.7325 110.696 37.705 94.4678 28.9547C78.444 20.3149 66.7183 61.9398 61.4783 61.9398Z" stroke="#A0C9CB" stroke-width="8" stroke-linecap="round"/>
</svg>
