<svg width="102" height="80" viewBox="0 0 102 80" fill="none" xmlns="http://www.w3.org/2000/svg">
<path d="M65.0953 29.9983C60.2344 27.8728 50.4046 0.984819 47.056 4.27939C43.7074 7.57395 38.7384 29.9983 35.6059 29.9983C32.4735 29.9983 2.44391 22.0275 4.06421 24.7907C5.6845 27.5539 29.3408 45.4083 29.2328 49.5531C29.1248 53.6979 19.0789 75.8034 22.2115 75.8034C25.3441 75.8034 46.1919 56.6736 50.4046 56.8862C54.6174 57.0987 80.5421 78.2477 82.5945 75.8034C84.6468 73.359 71.1444 52.5289 72.4406 49.5531C73.7369 46.5774 101.606 24.7907 97.6092 24.7907C93.6125 24.7907 69.9562 32.1237 65.0953 29.9983Z" stroke="#A0C9CB" stroke-width="8" stroke-linecap="round"/>
</svg>
